<svg width="360" height="336" viewBox="0 0 360 336" fill="none" xmlns="http://www.w3.org/2000/svg">
<g clip-path="url(#clip0_7674_41755)">
<path d="M90 81V81C93.3137 81 96 83.6863 96 87V210C96 213.314 93.3137 216 90 216V216V81Z" fill="#DDDDDD"/>
<path d="M90 81V81C93.3137 81 96 83.6863 96 87V210C96 213.314 93.3137 216 90 216V216V81Z" fill="url(#paint0_linear_7674_41755)"/>
<path d="M238.929 128.928C239.319 128.538 239.952 128.538 240.343 128.928L246.707 135.293C247.098 135.683 247.098 136.316 246.707 136.707L240.343 143.071C239.952 143.461 239.319 143.461 238.929 143.071C238.538 142.681 238.538 142.048 238.929 141.657L243.586 137H128C127.448 137 127 136.552 127 136C127 135.447 127.448 135 128 135H243.586L238.929 130.343C238.538 129.952 238.538 129.319 238.929 128.928Z" fill="url(#paint1_linear_7674_41755)"/>
<path d="M170 184C170.552 184 171 184.447 171 185C171 185.552 170.552 186 170 186H129C128.448 186 128 185.552 128 185C128 184.447 128.448 184 129 184H170Z" fill="url(#paint2_linear_7674_41755)"/>
<path d="M207 158C207.552 158 208 158.447 208 159C208 159.552 207.552 160 207 160H129C128.448 160 128 159.552 128 159C128 158.447 128.448 158 129 158H207Z" fill="url(#paint3_linear_7674_41755)"/>
<path d="M30 -390C30 -398.837 37.1634 -406 46 -406H74C82.8366 -406 90 -398.837 90 -390V222C90 230.837 82.8366 238 74 238H46C37.1634 238 30 230.837 30 222V-390Z" fill="url(#paint4_linear_7674_41755)"/>
<rect x="44" y="192" width="32" height="32" rx="16" fill="white" fill-opacity="0.1"/>
<circle cx="72" cy="220" r="4" fill="#4EBC60"/>
<path d="M68.2993 51.7287C66.089 51.8956 64.0016 52.8458 62.4233 54.424C60.8451 56.0023 59.8959 58.0897 59.729 60.3H60.5991C61.0961 60.3 61.4224 60.3 61.6636 60.2785C61.9044 60.257 61.9614 60.2203 61.9663 60.217C61.944 60.2318 62.018 60.1834 62.1958 59.8283C62.3574 59.5056 62.5517 59.0459 62.8286 58.3908C63.1617 57.6032 63.6458 56.8793 64.2622 56.2629C64.8786 55.6465 65.6025 55.1624 66.3901 54.8293C67.0452 54.5524 67.5049 54.3581 67.8276 54.1965C68.1827 54.0187 68.2311 53.9447 68.2163 53.967C68.2196 53.9621 68.2563 53.9051 68.2778 53.6643C68.2993 53.4231 68.2993 53.0968 68.2993 52.5998V51.7287ZM68.2993 47.719C65.0272 47.8915 61.9238 49.2673 59.5952 51.5959C57.2666 53.9245 55.8917 57.0278 55.7192 60.3H58.3257C58.495 57.718 59.5922 55.2747 61.4331 53.4338C63.274 51.5929 65.7172 50.4947 68.2993 50.3254V47.719ZM68.2993 45.4006C68.2993 44.8001 68.2974 44.4291 68.2563 44.1604C68.2199 43.9221 68.1667 43.866 68.1294 43.8332C68.0813 43.791 68.0202 43.7521 67.8159 43.7453C67.5726 43.7373 67.245 43.778 66.6958 43.8498C58.9407 44.8642 52.8635 50.9414 51.8491 58.6965C51.7773 59.2457 51.7366 59.5733 51.7446 59.8166C51.7514 60.0209 51.7903 60.082 51.8325 60.1301C51.8653 60.1674 51.9214 60.2206 52.1597 60.257C52.4284 60.2981 52.7994 60.3 53.3999 60.3H54.3169C54.4906 56.6563 56.0138 53.1969 58.605 50.6057C61.1961 48.0145 64.6556 46.4904 68.2993 46.3166V45.4006ZM69.6997 52.5998C69.6997 53.0705 69.6998 53.4711 69.6714 53.7893C69.6429 54.1077 69.5798 54.444 69.3833 54.7404C69.1688 55.0639 68.7948 55.2771 68.4546 55.4475C68.0818 55.6341 67.5721 55.8495 66.936 56.1184C66.3129 56.3818 65.7391 56.7645 65.2515 57.2522C64.7638 57.7398 64.3811 58.3136 64.1177 58.9367C63.8488 59.5728 63.6334 60.0825 63.4468 60.4553C63.2764 60.7955 63.0632 61.1695 62.7397 61.384C62.4433 61.5805 62.107 61.6436 61.7886 61.6721C61.4704 61.7005 61.0698 61.7004 60.5991 61.7004H53.3999C52.8444 61.7004 52.3476 61.7018 51.9487 61.6408C51.5195 61.5752 51.1064 61.4249 50.7808 61.0539C50.4646 60.6937 50.3593 60.2868 50.3452 59.8635C50.3325 59.4788 50.3947 59.0174 50.4604 58.5149C51.5571 50.1306 58.1299 43.5578 66.5142 42.4611C67.0167 42.3954 67.4781 42.3332 67.8628 42.3459C68.2861 42.36 68.693 42.4653 69.0532 42.7815C69.4242 43.1071 69.5745 43.5202 69.6401 43.9494C69.7011 44.3483 69.6997 44.8451 69.6997 45.4006V52.5998Z" fill="#7DB1FF"/>
<path d="M50.5748 107.303C50.9595 107.265 51.3028 107.546 51.3414 107.93C51.5242 109.755 51.9086 110.794 52.5572 111.443C53.2058 112.092 54.2458 112.476 56.0699 112.659C56.4544 112.698 56.7344 113.041 56.6959 113.425C56.6571 113.81 56.3147 114.09 55.9303 114.051C54.0203 113.86 52.5688 113.434 51.567 112.432C50.5655 111.43 50.1393 109.98 49.9479 108.07C49.9093 107.685 50.1902 107.342 50.5748 107.303ZM69.4244 107.303C69.8091 107.342 70.0899 107.685 70.0514 108.07C69.86 109.98 69.4339 111.43 68.4322 112.432C67.4305 113.434 65.9797 113.86 64.0699 114.051C63.6854 114.09 63.3421 113.81 63.3033 113.425C63.2648 113.041 63.5456 112.697 63.9303 112.659C65.7541 112.476 66.7934 112.091 67.442 111.443C68.0906 110.794 68.476 109.755 68.6588 107.93C68.6974 107.546 69.0399 107.265 69.4244 107.303ZM70.2994 103.6C70.686 103.6 70.9996 103.914 70.9996 104.3C70.9995 104.687 70.6859 105.001 70.2994 105.001H49.6998C49.3133 105.001 48.9997 104.687 48.9996 104.3C48.9996 103.914 49.3132 103.6 49.6998 103.6H70.2994ZM55.9303 93.9489C56.3148 93.9104 56.6574 94.1912 56.6959 94.5758C56.7342 94.9602 56.4543 95.3027 56.0699 95.3414C54.2458 95.5243 53.2058 95.9087 52.5572 96.5573C51.9086 97.2059 51.5242 98.2457 51.3414 100.07C51.3029 100.455 50.9595 100.735 50.5748 100.697C50.1902 100.658 49.9093 100.315 49.9479 99.9303C50.1393 98.0205 50.5654 96.5698 51.567 95.568C52.5688 94.5662 54.0203 94.1403 55.9303 93.9489ZM64.0699 93.9489C65.9797 94.1403 67.4305 94.5663 68.4322 95.568C69.4339 96.5698 69.8599 98.0204 70.0514 99.9303C70.0899 100.315 69.8091 100.658 69.4244 100.697C69.0398 100.735 68.6973 100.455 68.6588 100.07C68.476 98.2457 68.0906 97.2059 67.442 96.5573C66.7934 95.9089 65.754 95.5242 63.9303 95.3414C63.5458 95.3029 63.265 94.9603 63.3033 94.5758C63.3419 94.1911 63.6852 93.9103 64.0699 93.9489Z" fill="#7DB1FF"/>
<path d="M62.9775 145.851C63.305 145.713 63.6751 145.704 64.0117 145.829C64.9421 146.177 65.822 146.647 66.6269 147.227L66.9668 147.483L67.0869 147.588C67.3518 147.849 67.5045 148.205 67.5058 148.581L67.5156 151.693C67.5303 151.717 67.5452 151.743 67.5605 151.769L70.3261 153.345L70.4589 153.43C70.7555 153.646 70.9569 153.973 71.0156 154.34C71.1841 155.393 71.1908 156.465 71.039 157.521C71.0103 157.983 70.7531 158.413 70.3339 158.652L67.5673 160.225C67.5544 160.247 67.5411 160.27 67.5273 160.293L67.5127 163.409C67.5107 163.837 67.3137 164.24 66.9775 164.504C66.0855 165.205 65.0914 165.765 64.0302 166.165C63.6447 166.311 63.2144 166.279 62.8545 166.078L60.0625 164.523H59.9521L57.1601 166.082C56.8013 166.283 56.3722 166.315 55.9873 166.171C54.9241 165.774 53.9281 165.216 53.0332 164.518C52.6944 164.254 52.4956 163.849 52.4941 163.419L52.4824 160.306C52.4677 160.281 52.4527 160.256 52.4375 160.23L49.6738 158.656C49.3042 158.445 49.0498 158.078 48.9834 157.657C48.8102 156.562 48.8102 155.446 48.9834 154.351L49.0175 154.196C49.1156 153.841 49.35 153.538 49.6728 153.354L52.4345 151.776C52.4479 151.753 52.4623 151.729 52.4765 151.705L52.4912 148.591L52.5009 148.432C52.5446 148.065 52.7322 147.727 53.0263 147.496C53.9184 146.796 54.9124 146.236 55.9736 145.835L56.1201 145.788C56.4657 145.7 56.8344 145.746 57.1494 145.922L59.9355 147.478H60.0468L62.8398 145.918L62.9775 145.851ZM60.5927 148.776C60.4654 148.846 60.322 148.881 60.1767 148.877H59.8066C59.6975 148.88 59.5892 148.862 59.4882 148.823L59.3906 148.776L56.4677 147.145C55.5399 147.495 54.6705 147.984 53.8906 148.597L53.8759 151.872L53.8671 151.986C53.8511 152.097 53.8122 152.204 53.7519 152.3C53.6891 152.401 53.6271 152.509 53.5683 152.611C53.4961 152.738 53.3905 152.843 53.2636 152.915L50.3662 154.57L50.3173 154.926C50.2186 155.762 50.2346 156.608 50.3662 157.44L53.2714 159.094C53.399 159.168 53.5044 159.276 53.5761 159.405C53.634 159.512 53.6958 159.614 53.7587 159.715C53.8392 159.844 53.8822 159.992 53.8828 160.144L53.8935 163.414C54.5784 163.948 55.3314 164.389 56.1318 164.723L56.4775 164.86L59.4062 163.224C59.5018 163.171 59.607 163.139 59.7148 163.127L59.8232 163.122H60.2119C60.3507 163.122 60.4878 163.157 60.6093 163.224L63.5361 164.856C64.3479 164.549 65.1149 164.136 65.8164 163.627L66.1132 163.403L66.1279 160.127C66.1282 160.014 66.1523 159.903 66.1982 159.8L66.2519 159.7C66.3149 159.599 66.3766 159.49 66.4355 159.389C66.5078 159.262 66.6131 159.156 66.7402 159.084L69.6425 157.434H69.6377C69.7866 156.482 69.7851 155.512 69.6328 154.561L66.7285 152.906C66.6009 152.832 66.4956 152.725 66.4238 152.596L66.2412 152.285C66.1607 152.157 66.1177 152.008 66.1171 151.857L66.1054 148.586C65.3229 147.976 64.452 147.488 63.5224 147.141L60.5927 148.776ZM67.6455 151.915H67.6474C67.6423 151.906 67.6355 151.898 67.6298 151.889C67.6347 151.898 67.6406 151.906 67.6455 151.915Z" fill="#7DB1FF"/>
<path d="M62.9998 156C62.9998 154.343 61.6567 153 59.9998 153C58.3429 153 56.9998 154.343 56.9998 156C56.9998 157.657 58.3429 159 59.9998 159C61.6567 159 62.9998 157.657 62.9998 156ZM64.4002 156C64.4002 158.43 62.4299 160.401 59.9998 160.401C57.5697 160.401 55.5994 158.43 55.5994 156C55.5994 153.57 57.5697 151.6 59.9998 151.6C62.4299 151.6 64.4002 153.57 64.4002 156Z" fill="#7DB1FF"/>
<path fill-rule="evenodd" clip-rule="evenodd" d="M64.9998 203C64.9998 205.762 62.7612 208 59.9998 208C57.2384 208 54.9998 205.762 54.9998 203C54.9998 200.239 57.2384 198 59.9998 198C62.7612 198 64.9998 200.239 64.9998 203ZM63.4998 203C63.4998 204.933 61.9328 206.5 59.9998 206.5C58.0668 206.5 56.4998 204.933 56.4998 203C56.4998 201.067 58.0668 199.5 59.9998 199.5C61.9328 199.5 63.4998 201.067 63.4998 203Z" fill="#7DB1FF"/>
<path d="M66.3833 215.388C66.6858 215.731 67.2218 215.778 67.5456 215.454C67.8063 215.194 67.8377 214.779 67.5979 214.499C65.7638 212.357 63.0402 211 59.9996 211C56.9591 211 54.2355 212.357 52.4015 214.499C52.1616 214.779 52.193 215.193 52.4537 215.454C52.7775 215.778 53.3135 215.731 53.616 215.388C55.1738 213.617 57.4562 212.5 59.9996 212.5C62.5431 212.5 64.8256 213.617 66.3833 215.388Z" fill="#7DB1FF"/>
<path d="M30 262C30 253.163 37.1634 246 46 246H74C82.8366 246 90 253.163 90 262V290C90 298.837 82.8366 306 74 306H46C37.1634 306 30 298.837 30 290V262Z" fill="#454545"/>
<path fill-rule="evenodd" clip-rule="evenodd" d="M60 266.899C61.2302 266.899 62.6959 267.19 63.8916 268.388C65.077 269.575 65.8869 271.546 66.0635 274.662C66.1092 275.47 66.1292 275.797 66.168 276C66.207 276.204 66.2817 276.431 66.4746 277.01L68.1709 282.1H64.2412C64.0958 282.981 63.6795 283.801 63.04 284.44C62.2336 285.247 61.1394 285.7 59.999 285.7C58.8589 285.7 57.7652 285.247 56.959 284.44C56.3197 283.801 55.9042 282.98 55.7588 282.1H51.8281L53.5254 277.01C53.7182 276.431 53.792 276.204 53.8311 276C53.8698 275.797 53.8908 275.47 53.9365 274.662C54.1131 271.547 54.922 269.575 56.1074 268.388C57.3032 267.19 58.7697 266.899 60 266.899ZM57.1885 282.1C57.3146 282.606 57.5739 283.075 57.9492 283.45C58.4929 283.994 59.2302 284.3 59.999 284.3C60.7681 284.3 61.506 283.994 62.0498 283.45C62.4252 283.075 62.6834 282.606 62.8096 282.1H57.1885ZM60 268.3C58.9825 268.3 57.9375 268.537 57.0986 269.377C56.2494 270.228 55.5002 271.808 55.334 274.741C55.2915 275.492 55.2671 275.944 55.2061 276.263C55.1453 276.58 55.0333 276.913 54.8535 277.452L53.7715 280.699H66.2285L65.1465 277.452C64.9667 276.913 64.8537 276.58 64.793 276.263C64.732 275.944 64.7085 275.491 64.666 274.741C64.4998 271.808 63.7505 270.228 62.9014 269.377C62.0625 268.537 61.0174 268.3 60 268.3Z" fill="#7DB1FF"/>
<rect x="76" y="244" width="16" height="16" rx="8" fill="#7DB1FF"/>
<path d="M83.9219 247.891C84.3047 247.893 84.6771 247.961 85.0391 248.094C85.4036 248.224 85.7318 248.438 86.0234 248.735C86.3151 249.029 86.5469 249.423 86.7188 249.918C86.8906 250.413 86.9766 251.025 86.9766 251.754C86.9792 252.442 86.9063 253.056 86.7578 253.598C86.612 254.137 86.4023 254.593 86.1289 254.965C85.8555 255.337 85.526 255.621 85.1406 255.817C84.7552 256.012 84.3216 256.11 83.8398 256.11C83.3346 256.11 82.8867 256.011 82.4961 255.813C82.1081 255.615 81.7943 255.344 81.5547 255C81.3151 254.656 81.168 254.263 81.1133 253.82H82.5391C82.612 254.138 82.7604 254.391 82.9844 254.578C83.2109 254.763 83.4961 254.856 83.8398 254.856C84.3945 254.856 84.8216 254.615 85.1211 254.133C85.4206 253.651 85.5703 252.982 85.5703 252.125H85.5156C85.388 252.354 85.2227 252.552 85.0195 252.719C84.8164 252.883 84.5859 253.009 84.3281 253.098C84.0729 253.186 83.8021 253.231 83.5156 253.231C83.0469 253.231 82.625 253.119 82.25 252.895C81.8776 252.671 81.582 252.363 81.3633 251.973C81.1471 251.582 81.0378 251.136 81.0352 250.633C81.0352 250.112 81.1549 249.645 81.3945 249.231C81.6367 248.814 81.974 248.486 82.4062 248.246C82.8385 248.004 83.3437 247.886 83.9219 247.891ZM83.9258 249.063C83.6445 249.063 83.3906 249.132 83.1641 249.27C82.9401 249.405 82.763 249.59 82.6328 249.824C82.5052 250.056 82.4414 250.315 82.4414 250.602C82.444 250.886 82.5078 251.143 82.6328 251.375C82.7604 251.607 82.9336 251.791 83.1523 251.926C83.3737 252.061 83.6263 252.129 83.9102 252.129C84.1211 252.129 84.3177 252.089 84.5 252.008C84.6823 251.927 84.8411 251.815 84.9766 251.672C85.1146 251.526 85.2214 251.361 85.2969 251.176C85.375 250.991 85.4128 250.796 85.4102 250.59C85.4102 250.317 85.3451 250.064 85.2148 249.832C85.0872 249.6 84.9115 249.414 84.6875 249.274C84.4661 249.133 84.2122 249.063 83.9258 249.063Z" fill="#252525"/>
<path d="M93.4273 155.153C92.0207 153.747 91.2306 151.839 91.2306 149.85C91.2306 147.861 92.0207 145.953 93.4273 144.547C94.8338 143.14 96.7414 142.35 98.7306 142.35C100.72 142.35 102.627 143.14 104.034 144.547C104.221 144.734 104.327 144.989 104.327 145.254C104.327 145.519 104.221 145.774 104.034 145.961C103.846 146.149 103.592 146.254 103.327 146.254C103.062 146.254 102.807 146.149 102.62 145.961C101.588 144.93 100.189 144.35 98.7306 144.35C97.2719 144.35 95.8729 144.93 94.8415 145.961C93.81 146.993 93.2306 148.391 93.2306 149.85C93.2306 151.309 93.81 152.708 94.8415 153.739C95.029 153.927 95.1344 154.181 95.1344 154.446C95.1344 154.712 95.029 154.966 94.8415 155.153C94.6539 155.341 94.3996 155.446 94.1344 155.446C93.8692 155.446 93.6148 155.341 93.4273 155.153ZM109.691 146.668C109.278 147.08 108.975 147.589 108.809 148.149C108.366 147.922 107.879 147.792 107.382 147.769C106.885 147.745 106.388 147.828 105.925 148.011C105.462 148.195 105.044 148.475 104.698 148.834C104.352 149.192 104.086 149.62 103.919 150.089L101.205 147.375C100.549 146.719 99.6588 146.35 98.7306 146.35C97.8023 146.35 96.9121 146.719 96.2557 147.375C95.5993 148.032 95.2306 148.922 95.2306 149.85C95.2306 150.778 95.5993 151.669 96.2557 152.325L103.327 159.396L102.447 159.192C101.55 158.955 100.595 159.084 99.7922 159.551C98.9897 160.018 98.4056 160.784 98.1684 161.682C97.9312 162.579 98.0602 163.534 98.5272 164.337C98.9941 165.139 99.7607 165.723 100.658 165.961L107.669 167.789C107.799 167.831 107.936 167.847 108.072 167.835C108.207 167.822 108.339 167.782 108.459 167.717C108.579 167.652 108.684 167.563 108.768 167.456C108.853 167.349 108.914 167.226 108.949 167.094C108.983 166.962 108.991 166.824 108.971 166.689C108.95 166.555 108.902 166.425 108.83 166.31C108.758 166.194 108.663 166.094 108.551 166.016C108.439 165.939 108.312 165.885 108.178 165.858L101.17 164.028C100.977 163.98 100.795 163.894 100.635 163.774C100.475 163.655 100.341 163.505 100.24 163.334C100.138 163.162 100.072 162.972 100.045 162.775C100.019 162.577 100.031 162.376 100.083 162.184C100.134 161.991 100.224 161.811 100.346 161.653C100.468 161.496 100.62 161.364 100.793 161.266C100.967 161.168 101.158 161.106 101.356 161.082C101.554 161.059 101.755 161.075 101.946 161.13L101.979 161.138L106.282 162.139C106.493 162.189 106.716 162.168 106.915 162.08C107.114 161.992 107.279 161.841 107.384 161.651C107.49 161.461 107.531 161.241 107.5 161.026C107.47 160.81 107.37 160.61 107.216 160.457L97.6699 150.911C97.3886 150.63 97.2306 150.248 97.2306 149.85C97.2306 149.452 97.3886 149.071 97.6699 148.789C97.9512 148.508 98.3327 148.35 98.7306 148.35C99.1284 148.35 99.5099 148.508 99.7912 148.789L105.802 154.8C105.989 154.987 106.244 155.093 106.509 155.093C106.774 155.093 107.028 154.987 107.216 154.8C107.403 154.612 107.509 154.358 107.509 154.093C107.509 153.828 107.403 153.573 107.216 153.386L106.155 152.325C105.874 152.044 105.716 151.662 105.716 151.264C105.716 150.867 105.874 150.485 106.155 150.204C106.436 149.922 106.818 149.764 107.216 149.764C107.614 149.764 107.995 149.922 108.277 150.204L110.044 151.971C110.232 152.159 110.486 152.264 110.751 152.264C111.017 152.264 111.271 152.159 111.458 151.971C111.646 151.784 111.751 151.53 111.751 151.264C111.751 150.999 111.646 150.745 111.458 150.557L111.105 150.204C110.824 149.922 110.666 149.541 110.666 149.143C110.666 148.745 110.824 148.364 111.105 148.082C111.386 147.801 111.768 147.643 112.166 147.643C112.563 147.643 112.945 147.801 113.226 148.082L116.408 151.264C118.318 153.174 118.989 155.1 118.994 155.116C119.078 155.368 119.259 155.576 119.496 155.694C119.733 155.813 120.008 155.832 120.259 155.748C120.407 155.7 120.541 155.617 120.651 155.507C120.782 155.376 120.875 155.21 120.917 155.03C120.96 154.849 120.952 154.66 120.893 154.483C120.861 154.386 120.084 152.11 117.823 149.849L114.641 146.667C114.316 146.342 113.93 146.084 113.506 145.908C113.081 145.733 112.626 145.642 112.166 145.642C111.706 145.642 111.251 145.733 110.826 145.909C110.402 146.085 110.016 146.343 109.691 146.668Z" fill="#DDDDDD"/>
<path d="M95.9023 147.022C96.6524 146.272 97.6699 145.85 98.7307 145.85C99.7915 145.85 100.809 146.271 101.559 147.022L103.771 149.233C103.93 148.964 104.12 148.713 104.339 148.486C104.734 148.077 105.212 147.756 105.741 147.546C106.27 147.337 106.838 147.242 107.406 147.27C107.789 147.288 108.165 147.362 108.525 147.487C108.723 147.052 108.997 146.654 109.337 146.315L109.48 146.179C109.819 145.871 110.21 145.623 110.635 145.447C111.12 145.245 111.64 145.142 112.166 145.142C112.691 145.142 113.211 145.246 113.697 145.447C114.182 145.648 114.623 145.942 114.995 146.314L118.177 149.496C120.512 151.831 121.322 154.187 121.368 154.328H121.367C121.454 154.592 121.468 154.875 121.404 155.145C121.34 155.416 121.201 155.663 121.004 155.86C120.839 156.025 120.638 156.15 120.416 156.223L120.415 156.222C120.038 156.347 119.627 156.319 119.272 156.141C118.916 155.964 118.646 155.652 118.52 155.275L118.397 154.974C118.136 154.38 117.433 152.996 116.055 151.618L112.873 148.436C112.685 148.248 112.431 148.143 112.166 148.143C111.901 148.143 111.646 148.248 111.459 148.436C111.271 148.623 111.166 148.878 111.166 149.143C111.166 149.408 111.271 149.663 111.459 149.85L111.812 150.204C112.093 150.485 112.251 150.866 112.251 151.264C112.251 151.662 112.093 152.044 111.812 152.325C111.531 152.606 111.149 152.764 110.751 152.764C110.354 152.764 109.972 152.606 109.691 152.325L107.923 150.557C107.736 150.37 107.481 150.264 107.216 150.264C106.951 150.264 106.696 150.37 106.509 150.557C106.321 150.745 106.216 150.999 106.216 151.264C106.216 151.529 106.321 151.784 106.509 151.971L107.57 153.032C107.851 153.313 108.009 153.695 108.009 154.093C108.009 154.49 107.851 154.872 107.57 155.153C107.288 155.435 106.907 155.592 106.509 155.593C106.111 155.593 105.73 155.435 105.448 155.153L99.4378 149.143C99.2503 148.955 98.9959 148.85 98.7307 148.85C98.4655 148.85 98.2111 148.955 98.0236 149.143C97.8361 149.33 97.7308 149.585 97.7308 149.85C97.7308 150.115 97.836 150.37 98.0236 150.557L107.569 160.102L107.652 160.192C107.836 160.408 107.956 160.673 107.996 160.956C108.041 161.279 107.98 161.608 107.822 161.894C107.663 162.179 107.416 162.405 107.117 162.537C106.819 162.669 106.485 162.7 106.167 162.626L106.166 162.625L101.866 161.625L101.861 161.624L101.828 161.616L101.818 161.613L101.808 161.611C101.68 161.575 101.547 161.563 101.415 161.579C101.283 161.594 101.155 161.636 101.039 161.702C100.924 161.767 100.822 161.855 100.741 161.96C100.66 162.065 100.6 162.185 100.565 162.313C100.531 162.442 100.523 162.576 100.541 162.707C100.559 162.839 100.603 162.966 100.67 163.08C100.738 163.194 100.827 163.294 100.933 163.373C101.013 163.433 101.102 163.48 101.195 163.514L101.29 163.543L101.296 163.544L108.305 165.374L108.304 165.375C108.495 165.417 108.676 165.494 108.836 165.605C109.004 165.722 109.147 165.872 109.255 166.045C109.363 166.219 109.434 166.413 109.464 166.615C109.495 166.817 109.485 167.023 109.433 167.221C109.38 167.419 109.288 167.604 109.162 167.765C109.036 167.926 108.877 168.059 108.697 168.157C108.518 168.254 108.32 168.315 108.116 168.333C107.923 168.35 107.729 168.329 107.543 168.272L100.532 166.444H100.531C99.5051 166.173 98.6283 165.505 98.0947 164.588C97.5612 163.671 97.4134 162.58 97.6845 161.554C97.9556 160.528 98.6238 159.653 99.5407 159.119C100.232 158.717 101.021 158.534 101.808 158.584L95.9023 152.678L95.7655 152.535C95.1011 151.801 94.7311 150.845 94.7311 149.85C94.7311 148.789 95.1521 147.772 95.9023 147.022ZM93.0738 144.193C94.574 142.693 96.6085 141.85 98.73 141.85C100.852 141.85 102.887 142.693 104.388 144.193C104.669 144.474 104.827 144.856 104.827 145.254C104.827 145.652 104.669 146.033 104.388 146.315C104.106 146.596 103.725 146.754 103.327 146.754C102.929 146.754 102.548 146.596 102.266 146.315C101.329 145.377 100.057 144.851 98.7307 144.851C97.4047 144.851 96.1328 145.377 95.1952 146.315C94.2575 147.252 93.7305 148.525 93.7305 149.851C93.7307 151.177 94.2576 152.448 95.1952 153.386C95.4764 153.667 95.6343 154.048 95.6343 154.446C95.6343 154.844 95.4764 155.226 95.1952 155.507C94.9139 155.788 94.5323 155.946 94.1345 155.946C93.7367 155.946 93.3551 155.788 93.0738 155.507L92.8004 155.22C91.4715 153.752 90.7302 151.839 90.7302 149.85C90.7302 147.728 91.5736 145.693 93.0738 144.193Z" stroke="black" stroke-opacity="0.6"/>
</g>
<defs>
<linearGradient id="paint0_linear_7674_41755" x1="93" y1="81" x2="93" y2="216" gradientUnits="userSpaceOnUse">
<stop stop-color="#7552FA"/>
<stop offset="0.264423" stop-color="#6D9C9F"/>
<stop offset="0.561298" stop-color="#F1AF40"/>
<stop offset="0.780649" stop-color="#F7A440"/>
<stop offset="1" stop-color="#F87A4F"/>
</linearGradient>
<linearGradient id="paint1_linear_7674_41755" x1="128" y1="159.265" x2="246" y2="159.265" gradientUnits="userSpaceOnUse">
<stop stop-color="#999999" stop-opacity="0"/>
<stop offset="1" stop-color="#999999"/>
</linearGradient>
<linearGradient id="paint2_linear_7674_41755" x1="128" y1="160.5" x2="208" y2="160.5" gradientUnits="userSpaceOnUse">
<stop stop-color="#999999" stop-opacity="0"/>
<stop offset="1" stop-color="#999999"/>
</linearGradient>
<linearGradient id="paint3_linear_7674_41755" x1="128" y1="160.5" x2="208" y2="160.5" gradientUnits="userSpaceOnUse">
<stop stop-color="#999999" stop-opacity="0"/>
<stop offset="1" stop-color="#999999"/>
</linearGradient>
<linearGradient id="paint4_linear_7674_41755" x1="60" y1="-406" x2="60" y2="238" gradientUnits="userSpaceOnUse">
<stop offset="0.625" stop-color="#444444" stop-opacity="0"/>
<stop offset="0.754808" stop-color="#444444"/>
</linearGradient>
<clipPath id="clip0_7674_41755">
<rect width="360" height="336" fill="white"/>
</clipPath>
</defs>
</svg>
